<mxfile host="app.diagrams.net" modified="2021-07-26T07:16:04.314Z" agent="5.0 (Windows NT 10.0; Win64; x64) AppleWebKit/537.36 (KHTML, like Gecko) Chrome/91.0.4472.164 Safari/537.36" etag="1Lk4JCAGGLtNS89uzput" version="14.8.4" type="github">
  <diagram id="wFE0QG_FPsp0jaGvCLVb" name="Page-1">
    <mxGraphModel dx="1038" dy="547" grid="1" gridSize="10" guides="1" tooltips="1" connect="1" arrows="1" fold="1" page="1" pageScale="1" pageWidth="850" pageHeight="1100" math="0" shadow="0">
      <root>
        <mxCell id="0" />
        <mxCell id="1" parent="0" />
        <mxCell id="40I5OKdUJd_KIjQ3Qjj--1" value="" style="rounded=0;whiteSpace=wrap;html=1;" vertex="1" parent="1">
          <mxGeometry x="15" y="10" width="820" height="640" as="geometry" />
        </mxCell>
        <mxCell id="40I5OKdUJd_KIjQ3Qjj--4" value="" style="rounded=0;whiteSpace=wrap;html=1;" vertex="1" parent="1">
          <mxGeometry x="15" y="10" width="200" height="640" as="geometry" />
        </mxCell>
        <mxCell id="40I5OKdUJd_KIjQ3Qjj--5" value="" style="rounded=0;whiteSpace=wrap;html=1;" vertex="1" parent="1">
          <mxGeometry x="215" y="10" width="210" height="640" as="geometry" />
        </mxCell>
        <mxCell id="40I5OKdUJd_KIjQ3Qjj--6" value="" style="rounded=0;whiteSpace=wrap;html=1;" vertex="1" parent="1">
          <mxGeometry x="425" y="10" width="210" height="640" as="geometry" />
        </mxCell>
      </root>
    </mxGraphModel>
  </diagram>
</mxfile>
